<svg xmlns="http://www.w3.org/2000/svg" xmlns:xlink="http://www.w3.org/1999/xlink" version="1.1" width="2000" height="2000" viewBox="0 0 1080 1080" xml:space="preserve">
  <desc>Created with Fabric.js 5.2.4</desc>
  <defs>
  </defs>
  <rect x="0" y="0" width="100%" height="100%" fill="transparent"></rect>
  <g transform="matrix(1 0 0 1 540 540)" id="a8f6fa77-bcec-4ae9-b493-8aa33dd73ffb"  >
  </g>
  <g transform="matrix(1 0 0 1 540 540)" id="8bfe0d1a-d7a5-44f4-b37e-dffebe61a62f"  >
    <rect style="stroke: none; stroke-width: 1; stroke-dasharray: none; stroke-linecap: butt; stroke-dashoffset: 0; stroke-linejoin: miter; stroke-miterlimit: 4; fill: rgb(255,255,255); fill-rule: nonzero; opacity: 1; visibility: hidden;" vector-effect="non-scaling-stroke" x="-540" y="-540" rx="0" ry="0" width="1080" height="1080" />
  </g>
  <g transform="matrix(3.65 0 0 3.65 165.2 539.95)"  >
    <path style="stroke: none; stroke-width: 1; stroke-dasharray: none; stroke-linecap: butt; stroke-dashoffset: 0; stroke-linejoin: miter; stroke-miterlimit: 4; fill: rgb(255,255,255); fill-rule: evenodd; opacity: 1;" vector-effect="non-scaling-stroke" transform=" translate(-33.36, -22.02)" d="M 27.8297 0 L 15.2168 0 C 14.2363 0 13.3895 0.558242 12.9438 1.41708 L 0.152694 32.4641 C -0.382126 33.7094 0.55381 34.9117 1.93543 34.9117 L 22.4815 34.9117 C 23.3728 34.9117 24.1751 35.5988 24.1751 36.4576 L 24.1751 43.2854 C 24.2642 44.1013 25.6458 44.3589 26.0024 43.5001 L 35.0497 22.1151 C 35.2726 21.6427 34.916 21.0845 34.3366 21.0845 L 23.3283 21.0845 C 22.1695 21.0845 21.3672 19.925 21.8129 18.8944 L 28.9884 1.67473 C 29.345 0.858838 28.721 0 27.8297 0 Z M 37.4237 2.03729 L 33.1337 11.9266 C 32.6959 12.9453 33.4839 14.0912 34.6221 14.1337 L 46.8354 14.1337 C 47.4045 14.1337 47.7985 14.7703 47.4921 15.2797 L 37.2048 32.2146 C 36.5919 33.2333 37.3799 34.549 38.6056 34.549 L 45.0406 34.549 C 49.3744 34.2095 53.6644 33.2757 57.3853 31.0687 C 60.3183 29.3709 62.7697 26.9516 64.3894 24.023 C 66.0091 21.0095 66.8409 17.5716 66.7095 14.1761 C 66.6658 10.7807 65.3087 7.47006 62.9886 4.96589 C 61.8067 3.73503 60.4934 2.54661 58.9175 1.86752 C 56.5974 0.763984 54.0584 0 51.4319 0 L 40.6193 0 C 39.2185 0 37.949 0.806425 37.4237 2.03729 Z" stroke-linecap="round" />
  </g>
  <g transform="matrix(1 0 0 1 540 540)" style="" id="709997f7-1e39-45c5-a436-788b2d649fc7"  >
    <text xml:space="preserve" font-family="Raleway" font-size="116" font-style="normal" font-weight="900" style="stroke: none; stroke-width: 1; stroke-dasharray: none; stroke-linecap: butt; stroke-dashoffset: 0; stroke-linejoin: miter; stroke-miterlimit: 4; fill: rgb(255,255,255); fill-rule: nonzero; opacity: 1; white-space: pre;" ><tspan x="-211.41" y="36.44" >Protool</tspan></text>
  </g>
</svg>
